<?xml version="1.0" standalone="no"?>
<!DOCTYPE svg PUBLIC "-//W3C//DTD SVG 20010904//EN"
 "http://www.w3.org/TR/2001/REC-SVG-20010904/DTD/svg10.dtd">
<svg version="1.0" xmlns="http://www.w3.org/2000/svg"
 width="3000.000000pt" height="3000.000000pt" viewBox="0 0 3000.000000 3000.000000"
 preserveAspectRatio="xMidYMid meet">
<metadata>
Created by potrace 1.11, written by Peter Selinger 2001-2013
</metadata>
<g transform="translate(0.000000,3000.000000) scale(0.100000,-0.100000)"
fill="#000000" stroke="none">
<path d="M14570 23214 c-25 -2 -112 -9 -195 -14 -1319 -92 -2652 -536 -3796
-1265 -975 -620 -1810 -1441 -2452 -2411 -699 -1056 -1140 -2244 -1296 -3489
-49 -390 -56 -507 -56 -1030 0 -523 7 -641 56 -1030 183 -1460 761 -2848 1672
-4015 386 -494 873 -986 1358 -1373 256 -203 684 -508 713 -507 6 1 92 114
192 253 404 563 3637 5053 3644 5060 3 4 527 -701 1164 -1567 636 -866 1164
-1584 1174 -1595 l17 -21 1348 2 1348 3 -1858 2530 c-1022 1391 -1857 2533
-1856 2537 1 3 763 1062 1693 2353 930 1291 1694 2353 1697 2361 4 12 -47 14
-368 12 l-374 -3 -1702 -2360 c-936 -1298 -1702 -2364 -1703 -2368 0 -5 732
-1006 1628 -2225 895 -1218 1629 -2219 1630 -2224 2 -4 -262 -8 -586 -8 l-589
0 -1329 1810 c-731 995 -1331 1809 -1334 1809 -4 0 -3948 -5473 -3971 -5511
-8 -13 -202 137 -424 328 -179 154 -502 469 -662 645 -1279 1416 -1973 3210
-1973 5104 0 2291 1020 4429 2811 5897 1079 884 2442 1471 3824 1647 372 47
511 55 970 56 535 0 825 -22 1265 -96 304 -51 795 -165 959 -223 24 -9 47 -16
52 -16 9 0 368 494 372 512 1 6 -23 19 -53 28 -700 221 -1216 325 -1935 391
-114 10 -981 21 -1075 13z"/>
<path d="M18268 22523 c-9 -10 -149 -205 -313 -433 -164 -228 -1192 -1657
-2284 -3175 l-1986 -2760 -3 1928 -2 1927 -1085 0 -1085 0 0 -3922 c0 -2374 4
-3918 9 -3912 5 5 142 193 305 417 l296 408 0 3200 0 3199 475 0 475 0 0
-2567 c0 -2214 2 -2565 14 -2553 8 8 1214 1682 2681 3720 1467 2038 2678 3720
2692 3737 l24 33 62 -31 c95 -48 345 -191 480 -276 1016 -633 1894 -1523 2509
-2543 122 -203 203 -352 313 -575 365 -743 602 -1525 709 -2335 52 -392 60
-534 60 -1005 0 -471 -8 -613 -60 -1005 -257 -1952 -1280 -3739 -2849 -4975
-1062 -837 -2343 -1379 -3687 -1559 -380 -51 -540 -61 -1023 -61 -470 1 -605
8 -980 56 -801 102 -1632 352 -2360 710 -76 38 -142 66 -146 61 -21 -22 -349
-483 -349 -490 0 -12 447 -229 641 -310 819 -345 1646 -545 2579 -624 210 -18
1030 -18 1245 0 781 65 1506 222 2205 479 1375 505 2585 1363 3526 2498 984
1188 1622 2662 1813 4190 48 383 55 509 56 1015 0 509 -5 616 -51 1000 -308
2598 -1877 4924 -4186 6204 -206 113 -677 346 -702 346 -2 0 -10 -8 -18 -17z"/>
</g>
</svg>
